<svg aria-label="catrice logo large" class="logo-large" role="img" style="enable-background:new 0 0 167.48 48.04;" version="1.1" viewBox="0 0 167.48 48.04" x="0px" xml:space="preserve" xmlns="http://www.w3.org/2000/svg" xmlns:xlink="http://www.w3.org/1999/xlink" y="0px">
<style type="text/css">
			.st0-DL{fill:#000005;}
			.st1-DL{fill:#FFFFFF;}
		</style>
<g>
<path d="M134.08,25.58c-3.2,3.6-7.27,3.85-8.93,3.85c-1.36,0-5.3-0.18-8.3-3.21c-2.82-2.82-3.07-6.24-3.07-7.62
				c0-1.3,0.24-4.9,2.96-7.73c3-3.1,7.01-3.35,8.37-3.35c5.73,0,8.41,3.44,8.54,3.6c0.39-0.68,0.84-1.33,1.36-1.92
				c-0.11-0.11-3.64-3.9-9.97-3.9c-1.95,0-7.25,0.39-11.02,4.97c-2.65,3.21-2.86,6.6-2.86,8.15c0,4.27,1.88,8.15,5.23,10.65
				c1.53,1.13,4.11,2.54,8.61,2.54c6.69,0,10.08-3.71,10.52-4.15C134.99,26.88,134.51,26.25,134.08,25.58"></path>
<path d="M26.11,25.98c-2.93,2.89-6.73,3.28-8.39,3.28c-1.36,0-5.3-0.18-8.3-3.21c-2.82-2.82-3.07-6.25-3.07-7.62
				c0-1.31,0.24-4.9,2.96-7.72c3-3.1,7.01-3.35,8.37-3.35c6.01,0,8.59,3.71,8.73,3.86c0.33-0.82,0.66-1.61,1.11-2.24
				c-0.11-0.11-3.58-3.84-9.91-3.84c-1.95,0-7.25,0.39-11.02,4.97c-2.65,3.21-2.86,6.6-2.86,8.15c0,4.27,1.88,8.15,5.23,10.65
				c1.53,1.13,4.11,2.54,8.61,2.54c5.66,0,9.04-2.77,9.47-3.21C26.66,27.55,26.33,26.73,26.11,25.98"></path>
<path d="M80.73,17.58V7.46h13.44c1.49,0,2.93,0,4.23,0.85c1.82,1.23,2,3.41,2,4.04c0,1.19-0.41,2.15-0.59,2.52
				c-1.11,2.19-3.3,2.56-5.49,2.67c-0.59,0.04-1.15,0.04-1.74,0.04H80.73z M93.83,19.81c2.3-0.11,4.67-0.22,6.64-1.67
				c2.48-1.85,2.67-4.6,2.67-5.64c0-0.7-0.07-2.52-1.15-4.15c-1.86-2.82-4.66-3.04-7.9-3.04H78.2v26.18h2.52V19.81h9.77l10.35,11.68
				h3.52L93.83,19.81z"></path>
<path d="M51.2,5.31c1.89,0.83,3,2.15,3,2.15h11.79v24.03h2.48V7.46h7.89V5.31H51.2z"></path>
<path d="M140.69,10.1c2.3-2.02,4.84-2.78,7.78-2.78c4.58,0,7.37,1.97,7.37,1.97c4.01,2.4,4.58,6.9,4.58,6.9h-23.02
				C137.41,16.18,137.78,12.65,140.69,10.1 M149.87,29.15c-3.16,0-6.11-0.94-8.43-2.63c-4.07-2.96-4.08-8.14-4.08-8.14h26.39
				c-0.25-2.56-0.55-3.69-1.12-4.98c-0.85-1.96-2.06-3.27-2.67-3.87c-3.97-4.07-9.34-4.39-11.22-4.39c0,0-6.14-0.17-10.26,3.53
				c-2.6,2.24-3.96,5.71-3.96,9.13c0,4.54,2.21,8.6,5.89,11.02c3.63,2.42,7.59,2.63,9.1,2.63c4.62,0,7.86-1.62,9.32-2.53
				c2.48-1.61,4.01-3.6,4.8-4.68l-2.09-1.49C161.16,23.34,157.86,29.15,149.87,29.15"></path>
<path d="M60.92,42.29c-0.41,0.3-1.14,0.73-2.37,0.73c-1.18,0-1.86-0.37-2.27-0.66c-0.88-0.65-1.38-1.66-1.38-2.77
				c0-0.4,0.06-1.29,0.75-2.12c0.99-1.19,2.39-1.29,2.9-1.29c0.41,0,1.6,0.07,2.53,0.93c0.29,0.26,0.47,0.52,0.68,0.85l-0.55,0.3
				c-0.06-0.09-0.24-0.42-0.5-0.69c-0.75-0.77-1.82-0.82-2.14-0.82c-0.36,0-1.42,0.07-2.2,0.87c-0.72,0.74-0.78,1.67-0.78,2.01
				c0,0.36,0.06,1.25,0.81,1.98c0.79,0.79,1.83,0.84,2.19,0.84c0.44,0,1.52-0.06,2.37-1.02c0.14-0.16,0.22-0.26,0.42-0.59l0.56,0.27
				C61.79,41.37,61.53,41.83,60.92,42.29"></path>
<path d="M74.9,38.86c-0.08-0.36-0.36-1.22-1.28-1.71c-0.31-0.16-1.01-0.46-1.96-0.42c-0.27,0.01-1.14,0.07-1.85,0.6
				c-0.38,0.28-1.12,1.01-1.12,2.31c0,0.18,0.02,0.63,0.21,1.11c0.65,1.65,2.49,1.74,2.95,1.74c0.32,0,1.25-0.03,2.05-0.62
				c1.01-0.76,1.06-1.89,1.06-2.3C74.98,39.41,74.99,39.19,74.9,38.86 M74.94,41.7c-1.05,1.26-2.61,1.33-3.11,1.33
				c-0.52,0-2.45-0.09-3.38-1.75c-0.4-0.71-0.42-1.37-0.42-1.67c0-0.24,0.02-0.75,0.27-1.33c0.61-1.45,2.08-2.11,3.58-2.1
				c0.53,0,2.31,0.08,3.29,1.62c0.47,0.75,0.53,1.48,0.53,1.8C75.69,39.96,75.61,40.89,74.94,41.7"></path>
<path d="M88.29,41.89c-0.41,0.59-1.28,1.13-2.87,1.13c-0.18,0-0.37-0.01-0.56-0.02c-0.28-0.02-1.64-0.08-2.45-0.95
				c-0.25-0.26-0.39-0.53-0.55-0.83l0.68-0.26c0.08,0.21,0.26,0.66,0.77,1c0.37,0.25,1.03,0.48,2.06,0.48c0.25,0,1.14,0,1.85-0.42
				c0.39-0.24,0.69-0.59,0.69-1.07c0-0.38-0.19-0.59-0.3-0.68c-0.41-0.34-1.52-0.46-1.99-0.52c-0.4-0.06-0.79-0.1-1.18-0.16
				c-0.41-0.07-0.93-0.13-1.3-0.32c-0.22-0.11-0.77-0.45-0.77-1.2c0-0.63,0.4-1.15,0.93-1.44c0.58-0.32,1.41-0.44,2.06-0.44
				c0.4,0,1.62,0.03,2.6,0.83c0.23,0.19,0.37,0.36,0.44,0.45l-0.59,0.31c-0.06-0.07-0.13-0.17-0.19-0.24c-0.6-0.6-1.49-0.79-2.3-0.79
				c-0.19,0-1.04,0-1.68,0.38c-0.19,0.11-0.37,0.26-0.48,0.46c-0.04,0.06-0.12,0.24-0.12,0.46c0,0.46,0.38,0.63,0.51,0.7
				c0.27,0.13,0.59,0.17,1.2,0.26c1.41,0.2,2.31,0.29,2.88,0.54c0.58,0.25,0.97,0.74,0.97,1.38C88.59,41.11,88.55,41.5,88.29,41.89"></path>
<path d="M101.83,42.85v-5.78c-0.07,0.17-0.12,0.28-0.19,0.44l-2.45,5.33h-0.64l-2.48-5.29c-0.06-0.11-0.11-0.25-0.18-0.49v5.78
				h-0.59v-6.48h0.83l2.46,5.25c0.12,0.25,0.21,0.42,0.29,0.69l2.73-5.94h0.81v6.48H101.83z"></path>
</g>
<polygon points="109.43,36.37 109.43,42.85 115.9,42.85 115.9,42.31 110.06,42.31 110.06,39.73 115.21,39.73 115.21,39.18 
			110.06,39.18 110.06,36.9 115.64,36.9 115.64,36.37 "></polygon>
<polygon points="121.82,36.37 121.82,36.9 124.73,36.9 124.73,42.85 125.35,42.85 125.35,36.9 128.13,36.9 128.13,36.37 "></polygon>
<rect height="6.48" width="0.61" x="134.41" y="36.37"></rect>
<g>
<path d="M147.66,42.29c-0.41,0.3-1.14,0.73-2.37,0.73c-1.18,0-1.86-0.37-2.27-0.66c-0.88-0.65-1.38-1.66-1.38-2.77
				c0-0.4,0.05-1.29,0.75-2.12c0.99-1.19,2.39-1.29,2.9-1.29c0.41,0,1.6,0.07,2.54,0.93c0.29,0.26,0.47,0.52,0.68,0.85l-0.55,0.3
				c-0.06-0.09-0.24-0.42-0.51-0.69c-0.75-0.77-1.82-0.82-2.14-0.82c-0.36,0-1.41,0.07-2.2,0.87c-0.72,0.74-0.78,1.67-0.78,2.01
				c0,0.36,0.06,1.25,0.81,1.98c0.79,0.79,1.83,0.84,2.19,0.84c0.44,0,1.52-0.06,2.37-1.02c0.14-0.16,0.22-0.26,0.42-0.59l0.56,0.27
				C148.53,41.37,148.27,41.83,147.66,42.29"></path>
<path d="M161.09,41.89c-0.41,0.59-1.28,1.13-2.87,1.13c-0.18,0-0.37-0.01-0.56-0.02c-0.28-0.02-1.64-0.08-2.45-0.95
				c-0.25-0.26-0.39-0.53-0.55-0.83l0.68-0.26c0.08,0.21,0.27,0.66,0.77,1c0.37,0.25,1.03,0.48,2.06,0.48c0.25,0,1.14,0,1.86-0.42
				c0.39-0.24,0.69-0.59,0.69-1.07c0-0.38-0.2-0.59-0.3-0.68c-0.41-0.34-1.52-0.46-1.99-0.52c-0.4-0.06-0.79-0.1-1.18-0.16
				c-0.41-0.07-0.93-0.13-1.3-0.32c-0.22-0.11-0.77-0.45-0.77-1.2c0-0.63,0.4-1.15,0.93-1.44c0.58-0.32,1.4-0.44,2.06-0.44
				c0.4,0,1.63,0.03,2.6,0.83c0.23,0.19,0.37,0.36,0.44,0.45l-0.59,0.31c-0.06-0.07-0.13-0.17-0.19-0.24c-0.6-0.6-1.49-0.79-2.31-0.79
				c-0.18,0-1.04,0-1.68,0.38c-0.18,0.11-0.37,0.26-0.48,0.46c-0.04,0.06-0.12,0.24-0.12,0.46c0,0.46,0.38,0.63,0.51,0.7
				c0.27,0.13,0.59,0.17,1.2,0.26c1.41,0.2,2.31,0.29,2.88,0.54c0.58,0.25,0.97,0.74,0.97,1.38C161.39,41.11,161.36,41.5,161.09,41.89
				"></path>
<path d="M50.97,23.99c-0.9,1.77-2.46,2.69-2.97,2.99c-3.64,2.2-7.51,2.44-9.01,2.44c-4.85,0-6.8-2.15-6.8-2.15l-0.01,0
				c-1.34-1.38-1.41-3.25-1.41-3.6c0-1.35,0.46-2.29,0.8-2.88c0,0,1.42-2.73,6.7-3.35c2.95-0.46,6.74-0.64,13.62-0.69l0.01,0.46
				C51.96,19.11,51.89,22.23,50.97,23.99 M56.91,29.24c-3.46,0.23-3.07-3.91-2.98-4.49c0.07-0.36,0.31-3.93,0.31-8.2
				c0-3.84-0.37-5.43-0.73-6.41c-0.23-0.68-0.57-1.32-1.07-1.93c-1.75-2.09-5.64-3.21-11.15-3.21c-1.88,0-5.8,0.17-8.58,1.78
				c-2.78,1.59-3.65,4.13-4.05,5.65l2.49,0.15c0.31-1.19,1.19-3.18,2.95-4.09c1.76-0.91,3.84-1.27,7.33-1.27
				c3.49,0,7.98,0.48,9.55,2.79l0,0.01l0,0c1.01,1.53,0.9,4.69,0.9,4.69c-9.06,0.1-17.35,0.18-20.81,2.76
				c-1.78,1.38-2.85,3.65-2.85,6.07c0,1.85,0.52,3.5,1.52,4.78c2.14,2.86,5.51,3.25,8.84,3.25c4.62,0,9.8-1.12,13.04-4.76
				c-0.01,1.2,0.25,3.61,2.97,4.16c1.3,0.19,2.5-0.06,2.5-0.06l0.01-1.68C57.04,29.24,56.99,29.25,56.91,29.24"></path>
</g>
<rect class="st0-DL" height="26.18" width="2.48" x="106.45" y="5.31"></rect>
<rect class="st1-DL" height="26.18" width="2.48" x="106.45" y="5.31"></rect>
<rect class="st0-DL" height="26.18" width="2.48" x="106.45" y="5.31"></rect>
</svg>