<?xml version="1.0" encoding="UTF-8"?>
<svg id="Layer_1" data-name="Layer 1" xmlns="http://www.w3.org/2000/svg" xmlns:xlink="http://www.w3.org/1999/xlink" viewBox="0 0 507.74 211.47">
  <defs>
    <style>
      .cls-1 {
        clip-path: url(#clippath-6);
      }

      .cls-2 {
        clip-path: url(#clippath-7);
      }

      .cls-3 {
        clip-path: url(#clippath-4);
      }

      .cls-4 {
        fill: #2d1b8c;
      }

      .cls-5 {
        fill: #7ee899;
      }

      .cls-6 {
        fill: none;
      }

      .cls-7 {
        clip-path: url(#clippath-1);
      }

      .cls-8 {
        clip-path: url(#clippath-5);
      }

      .cls-9 {
        clip-path: url(#clippath-8);
      }

      .cls-10 {
        clip-path: url(#clippath-3);
      }

      .cls-11 {
        clip-path: url(#clippath-2);
      }

      .cls-12 {
        clip-path: url(#clippath);
      }
    </style>
    <clipPath id="clippath">
      <rect class="cls-6" width="507.74" height="211.47"/>
    </clipPath>
    <clipPath id="clippath-1">
      <rect class="cls-6" width="507.74" height="211.47"/>
    </clipPath>
    <clipPath id="clippath-2">
      <rect class="cls-6" width="507.74" height="211.47"/>
    </clipPath>
    <clipPath id="clippath-3">
      <rect class="cls-6" width="507.74" height="211.47"/>
    </clipPath>
    <clipPath id="clippath-4">
      <rect class="cls-6" width="507.74" height="211.47"/>
    </clipPath>
    <clipPath id="clippath-5">
      <rect class="cls-6" width="507.74" height="211.47"/>
    </clipPath>
    <clipPath id="clippath-6">
      <rect class="cls-6" width="507.74" height="211.47"/>
    </clipPath>
    <clipPath id="clippath-7">
      <rect class="cls-6" width="507.74" height="211.47"/>
    </clipPath>
    <clipPath id="clippath-8">
      <rect class="cls-6" width="507.74" height="211.47"/>
    </clipPath>
  </defs>
  <g class="cls-12">
    <path class="cls-4" d="M68.66,75.9c0-2.05.39-3.99,1.18-5.81.79-1.81,1.86-3.4,3.22-4.76,1.36-1.36,2.96-2.43,4.81-3.22,1.84-.78,3.79-1.18,5.85-1.18h9.52c1.15,0,2.12.39,2.9,1.18.79.79,1.18,1.76,1.18,2.9s-.39,2.12-1.18,2.9c-.79.79-1.75,1.18-2.9,1.18h-9.52c-1.87,0-3.48.67-4.81,2-1.33,1.33-2,2.93-2,4.81v5.08h14.33c1.09,0,2.04.39,2.86,1.18.82.79,1.22,1.75,1.22,2.9s-.41,2.12-1.22,2.9c-.82.79-1.77,1.18-2.86,1.18h-14.33v35.46c0,1.15-.41,2.12-1.22,2.9-.82.79-1.8,1.18-2.95,1.18-1.09,0-2.04-.39-2.86-1.18-.82-.78-1.22-1.75-1.22-2.9v-35.46h-5.44c-1.15,0-2.12-.39-2.9-1.18-.78-.79-1.18-1.75-1.18-2.9s.39-2.11,1.18-2.9c.79-.78,1.75-1.18,2.9-1.18h5.44v-5.08Z"/>
  </g>
  <g class="cls-7">
    <path class="cls-4" d="M146.46,80.98c1.15,0,2.13.39,2.95,1.18.82.79,1.22,1.75,1.22,2.9v19.77c0,3.26-.63,6.35-1.9,9.25-1.27,2.9-2.98,5.44-5.12,7.62s-4.67,3.89-7.57,5.12c-2.9,1.24-6.02,1.86-9.34,1.86s-6.35-.62-9.25-1.86c-2.9-1.24-5.44-2.95-7.62-5.12-2.18-2.18-3.89-4.72-5.12-7.62-1.24-2.9-1.86-5.98-1.86-9.25v-19.77c0-1.15.39-2.11,1.18-2.9.78-.78,1.75-1.18,2.9-1.18s2.12.39,2.9,1.18c.79.79,1.18,1.75,1.18,2.9v19.77c0,2.18.41,4.21,1.22,6.12.82,1.9,1.94,3.57,3.36,4.99,1.42,1.42,3.08,2.54,4.99,3.35,1.9.82,3.94,1.22,6.12,1.22s4.22-.41,6.12-1.22c1.9-.82,3.57-1.93,4.99-3.35,1.42-1.42,2.54-3.08,3.35-4.99.82-1.9,1.23-3.95,1.23-6.12v-19.77c0-1.15.39-2.11,1.18-2.9.78-.78,1.75-1.18,2.9-1.18"/>
  </g>
  <g class="cls-11">
    <path class="cls-5" d="M146.28,131.85c.97.6,1.63,1.39,1.99,2.36.36,1.09.3,2.15-.18,3.18-1.03,1.99-2.3,3.81-3.81,5.44-1.51,1.63-3.19,3.02-5.03,4.17-1.84,1.15-3.82,2.02-5.94,2.63-2.12.6-4.32.9-6.62.9-4.53,0-8.7-1.18-12.51-3.54-3.81-2.36-6.74-5.56-8.79-9.61-.49-1.03-.56-2.09-.22-3.18.33-1.09,1.01-1.87,2.04-2.36,1.09-.49,2.12-.54,3.08-.18.54.12,1.01.36,1.4.73.39.36.74.78,1.04,1.27,1.33,2.72,3.25,4.85,5.76,6.39,2.51,1.54,5.24,2.31,8.21,2.31s5.79-.77,8.3-2.31c2.51-1.54,4.43-3.67,5.76-6.39.36-.73.88-1.29,1.54-1.68.66-.39,1.36-.59,2.09-.59.54,0,1.18.15,1.9.45"/>
  </g>
  <g class="cls-10">
    <path class="cls-4" d="M166.23,124.6c0,1.15-.39,2.12-1.18,2.9-.79.79-1.75,1.18-2.9,1.18s-2.12-.39-2.9-1.18c-.79-.78-1.18-1.75-1.18-2.9v-19.77c0-3.32.62-6.44,1.86-9.34,1.24-2.9,2.95-5.43,5.12-7.57,2.18-2.14,4.72-3.86,7.62-5.12,2.9-1.27,5.99-1.9,9.25-1.9s6.44.64,9.34,1.9c2.9,1.27,5.43,2.98,7.57,5.12s3.84,4.67,5.08,7.57c1.24,2.9,1.86,6.01,1.86,9.34v19.77c0,1.15-.39,2.12-1.18,2.9-.79.79-1.75,1.18-2.9,1.18s-2.12-.39-2.9-1.18c-.79-.78-1.18-1.75-1.18-2.9v-19.77c0-2.18-.41-4.22-1.23-6.12-.82-1.9-1.94-3.57-3.35-4.99-1.42-1.42-3.08-2.54-4.99-3.36-1.9-.82-3.94-1.22-6.12-1.22s-4.21.41-6.12,1.22c-1.9.82-3.57,1.94-4.99,3.36-1.42,1.42-2.54,3.08-3.35,4.99-.82,1.9-1.22,3.94-1.22,6.12v19.77h0Z"/>
  </g>
  <g class="cls-3">
    <path class="cls-5" d="M218.19,75.9c0-2.05.39-3.99,1.18-5.81.79-1.81,1.86-3.4,3.22-4.76,1.36-1.36,2.96-2.43,4.8-3.22,1.84-.78,3.79-1.18,5.85-1.18h9.52c1.15,0,2.12.39,2.9,1.18.79.79,1.18,1.76,1.18,2.9s-.39,2.12-1.18,2.9c-.79.79-1.75,1.18-2.9,1.18h-9.52c-1.87,0-3.48.67-4.8,2-1.33,1.33-1.99,2.93-1.99,4.81v5.08h14.33c1.09,0,2.04.39,2.86,1.18.82.79,1.23,1.75,1.23,2.9s-.41,2.12-1.23,2.9c-.82.79-1.77,1.18-2.86,1.18h-14.33v35.46c0,1.15-.41,2.12-1.23,2.9-.82.79-1.8,1.18-2.95,1.18-1.09,0-2.04-.39-2.86-1.18-.82-.78-1.23-1.75-1.23-2.9v-35.46h-5.44c-1.15,0-2.12-.39-2.9-1.18-.79-.79-1.18-1.75-1.18-2.9s.39-2.11,1.18-2.9c.79-.78,1.75-1.18,2.9-1.18h5.44v-5.08h0Z"/>
  </g>
  <g class="cls-8">
    <path class="cls-5" d="M287.83,122.79c-2.18,1.94-4.61,3.4-7.3,4.4-2.69,1-5.49,1.5-8.39,1.5-3.26,0-6.35-.62-9.25-1.86-2.9-1.24-5.44-2.95-7.62-5.12-2.17-2.18-3.88-4.72-5.12-7.62-1.24-2.9-1.86-5.98-1.86-9.25s.62-6.44,1.86-9.34c1.24-2.9,2.95-5.43,5.12-7.57,2.18-2.14,4.72-3.86,7.62-5.12,2.9-1.27,5.98-1.9,9.25-1.9s6.44.64,9.34,1.9c2.9,1.27,5.42,2.98,7.57,5.12,2.14,2.14,3.84,4.67,5.08,7.57,1.24,2.9,1.86,6.01,1.86,9.34v19.77c0,1.15-.39,2.12-1.18,2.9-.79.79-1.75,1.18-2.9,1.18s-2.12-.39-2.9-1.18c-.79-.78-1.18-1.75-1.18-2.9v-1.81h0ZM272.14,89.14c-2.18,0-4.22.41-6.12,1.22-1.91.82-3.57,1.94-4.99,3.36-1.42,1.42-2.54,3.08-3.36,4.99-.82,1.9-1.22,3.94-1.22,6.12s.41,4.22,1.22,6.12c.82,1.9,1.94,3.57,3.36,4.99,1.42,1.42,3.08,2.54,4.99,3.35,1.9.82,3.94,1.22,6.12,1.22s4.22-.41,6.12-1.22,3.57-1.93,4.99-3.35c1.42-1.42,2.54-3.08,3.35-4.99.82-1.91,1.23-3.95,1.23-6.12s-.41-4.22-1.23-6.12c-.82-1.9-1.93-3.57-3.35-4.99-1.42-1.42-3.08-2.54-4.99-3.36-1.9-.82-3.95-1.22-6.12-1.22"/>
  </g>
  <g class="cls-1">
    <path class="cls-5" d="M326.45,81.44c1.15,0,2.12.39,2.9,1.18.79.79,1.18,1.76,1.18,2.9s-.39,2.12-1.18,2.9c-.78.79-1.75,1.18-2.9,1.18h-7.44c-1.94,0-3.57.65-4.9,1.95-1.33,1.3-1.99,2.92-1.99,4.85v28.2c0,1.15-.39,2.12-1.18,2.9-.79.79-1.75,1.18-2.9,1.18s-2.12-.39-2.9-1.18c-.79-.78-1.18-1.75-1.18-2.9v-28.2c0-2.12.39-4.08,1.18-5.89.78-1.82,1.86-3.4,3.22-4.76,1.36-1.36,2.96-2.42,4.8-3.17,1.85-.75,3.79-1.13,5.85-1.13,0,0,7.43,0,7.43,0Z"/>
  </g>
  <g class="cls-2">
    <path class="cls-5" d="M364.63,86.24c1.27-1.51,2.93-2.76,4.99-3.76,2.05-1,4.68-1.5,7.89-1.5,2.18-.12,4.29.2,6.35.95,2.06.76,3.87,1.92,5.44,3.49,1.27,1.27,2.23,2.66,2.9,4.17.67,1.51,1.15,2.98,1.45,4.4.3,1.42.47,2.69.5,3.81.03,1.12.05,1.89.05,2.31v24.48c0,1.15-.41,2.12-1.23,2.9-.81.79-1.77,1.18-2.85,1.18-1.15,0-2.13-.39-2.95-1.18-.82-.78-1.23-1.75-1.23-2.9v-17c0-1.48.03-2.82.09-4.03v-3.9c.06-1.03.03-2.05-.09-3.08-.12-.85-.35-1.77-.68-2.76-.33-1-.89-1.89-1.68-2.68-1.81-1.51-3.84-2.18-6.08-2-1.81,0-3.28.3-4.4.91-1.12.61-1.99,1.35-2.63,2.22-.63.88-1.07,1.81-1.31,2.81-.24,1-.39,1.89-.45,2.68,0,.12.01.61.05,1.45.03.85.05,1.9.05,3.17s-.02,2.71-.05,4.31c-.03,1.6-.05,3.22-.05,4.85v13.06c0,1.15-.39,2.12-1.18,2.9-.79.79-1.75,1.18-2.9,1.18s-2.12-.39-2.9-1.18c-.79-.78-1.18-1.75-1.18-2.9v-27.2c0-2.36-.81-4.44-2.45-6.26-.85-.72-1.8-1.27-2.86-1.63-1.06-.36-2.13-.49-3.22-.36-2.36,0-4.14.5-5.35,1.5-1.21,1-2.06,2.12-2.54,3.36-.48,1.24-.74,2.42-.77,3.54-.03,1.12-.05,1.8-.05,2.04v3.94c0,1.18.01,2.53.05,4.04.03,1.51.05,3.05.05,4.62v12.42c0,1.15-.41,2.12-1.23,2.9-.82.79-1.8,1.18-2.95,1.18s-2.04-.39-2.86-1.18c-.82-.78-1.23-1.75-1.23-2.9v-24.48c0-.42.01-1.18.05-2.27.03-1.09.18-2.34.45-3.76.27-1.42.74-2.9,1.4-4.44s1.63-2.95,2.9-4.21c1.27-1.27,2.89-2.33,4.85-3.18,1.96-.85,4.36-1.27,7.21-1.27,2.18-.12,4.31.2,6.39.95,2.09.76,3.91,1.89,5.49,3.4.24.24.48.54.73.91"/>
  </g>
  <g class="cls-9">
    <path class="cls-5" d="M440.44,122.79c-2.18,1.94-4.61,3.4-7.3,4.4-2.69,1-5.48,1.5-8.39,1.5-3.26,0-6.35-.62-9.25-1.86-2.9-1.24-5.44-2.95-7.62-5.12-2.17-2.18-3.89-4.72-5.12-7.62-1.24-2.9-1.86-5.98-1.86-9.25s.62-6.44,1.86-9.34c1.24-2.9,2.95-5.43,5.12-7.57,2.18-2.14,4.72-3.86,7.62-5.12,2.9-1.27,5.98-1.9,9.25-1.9s6.44.64,9.34,1.9c2.9,1.27,5.43,2.98,7.57,5.12s3.84,4.67,5.08,7.57c1.24,2.9,1.86,6.01,1.86,9.34v19.77c0,1.15-.39,2.12-1.18,2.9-.79.79-1.75,1.18-2.9,1.18s-2.12-.39-2.9-1.18c-.79-.78-1.18-1.75-1.18-2.9v-1.81h0ZM424.75,89.14c-2.17,0-4.21.41-6.12,1.22-1.9.82-3.57,1.94-4.99,3.36-1.42,1.42-2.54,3.08-3.36,4.99-.82,1.9-1.22,3.94-1.22,6.12s.41,4.22,1.22,6.12c.82,1.9,1.94,3.57,3.36,4.99,1.42,1.42,3.08,2.54,4.99,3.35,1.9.82,3.94,1.22,6.12,1.22s4.22-.41,6.12-1.22c1.9-.82,3.57-1.93,4.99-3.35,1.42-1.42,2.54-3.08,3.35-4.99.82-1.91,1.23-3.95,1.23-6.12s-.41-4.22-1.23-6.12c-.81-1.9-1.93-3.57-3.35-4.99-1.42-1.42-3.08-2.54-4.99-3.36-1.9-.82-3.94-1.22-6.12-1.22"/>
  </g>
</svg>