<svg viewBox="0 0 707 128" fill="none" xmlns="http://www.w3.org/2000/svg">
<g clip-path="url(#clip0_83_1386)">
<path d="M44.7192 70.6044L44.5338 13.9415L22.2669 13.75L0 13.5585V7.05185V0.545188H52.1371H104.274V7.06233V13.5795H82.1884H60.1025V70.4234V127.267H52.5036H44.9047L44.7192 70.6044ZM152.791 63.9063V0.545188H160.394H167.997V63.9063V127.267H160.394H152.791V63.9063ZM225.928 63.8559V0.444336L260.142 0.717657C292.682 0.977593 294.641 1.06891 300.15 2.58262C318.97 7.75342 329.286 18.9364 330.668 35.6653C332.174 53.8888 320.304 69.0468 300.541 74.1378C297.292 74.9749 295.535 75.7713 295.743 76.3128C295.923 76.7827 304.001 87.2177 313.693 99.5018C323.385 111.786 332.244 123.058 333.379 124.552L335.443 127.267H326.342H317.241L297.968 102.647L278.694 78.0267H259.552H240.41V102.647V127.267H233.169H225.928V63.8559ZM293.201 63.8782C302.512 61.6834 309.623 56.5958 313.406 49.4238C315.081 46.2475 315.315 44.9588 315.315 38.9239C315.315 32.8942 315.079 31.592 313.401 28.3782C310.038 21.9367 304.11 17.6311 295.262 15.2047C291.4 14.1456 287.078 13.9622 265.754 13.9527L240.772 13.9416L240.582 39.467L240.392 64.9925L264.478 64.9818C283.393 64.9734 289.56 64.7364 293.201 63.8782ZM415.649 70.4234V13.5795H393.563H371.477V7.06233V0.545188H423.614H475.751V7.06233V13.5795H453.303H430.855V70.4234V127.267H423.252H415.649V70.4234ZM524.268 63.9063V0.545188H531.509H538.75V63.9063V127.267H531.509H524.268V63.9063ZM596.68 63.8563V0.445181L631.257 0.719795C664.406 0.983066 666.069 1.06116 671.525 2.61075C687.004 7.00699 697.288 16.1148 700.603 28.3633C702.217 34.3247 701.821 46.3067 699.847 51.2341C695.355 62.4512 685.015 70.8049 671.512 74.1276C668.788 74.798 666.45 75.4331 666.318 75.539C666.082 75.7282 702.651 122.453 705.528 125.638L707 127.267L697.641 127.257L688.282 127.246L669.093 102.647L649.904 78.0479L630.895 78.0373L611.887 78.0267V102.647V127.267H604.284H596.68V63.8563ZM667.949 62.9635C676.983 59.5951 681.566 55.666 684.865 48.4595C686.299 45.3259 686.663 43.3687 686.663 38.7713C686.663 33.6546 686.389 32.4731 684.214 28.2099C681.111 22.1269 676.681 18.6231 668.731 15.9643C662.97 14.0374 662.798 14.0252 637.412 13.7398L611.887 13.4528V39.2717V65.0907L637.775 64.8263C662.342 64.5753 663.881 64.4803 667.949 62.9635Z" fill="black"></path>
</g>
<defs>
<clipPath id="clip0_83_1386">
<rect width="707" height="126.823" fill="white" transform="translate(0 0.444336)"></rect>
</clipPath>
</defs>
</svg>
