<?xml version="1.0" encoding="utf-8"?>
<!-- Generator: Adobe Illustrator 23.0.3, SVG Export Plug-In . SVG Version: 6.00 Build 0)  -->
<svg version="1.1" id="Layer_1" xmlns="http://www.w3.org/2000/svg" xmlns:xlink="http://www.w3.org/1999/xlink" x="0px" y="0px"
	 viewBox="0 0 200 200" style="enable-background:new 0 0 200 200;" xml:space="preserve">
<style type="text/css">
	.st0{fill:#231F20;}
</style>
<g>
	<polygon class="st0" points="33.6,109.5 27.7,93.6 24.8,93.6 19,109.6 12.9,93.6 10,93.6 17.6,113.1 20.5,113.1 26.2,97.5 
		32,113.1 34.9,113.1 42.7,93.6 39.7,93.6 	"/>
	<path class="st0" d="M54,93c-7.1,0-10.4,4.9-10.4,10.4c0,4.8,2.6,10.3,10.4,10.3c6.3,0,9.2-3.4,10.3-6.8h-2.7c-1,3-3,4.5-7.6,4.5
		c-1.2,0-2.3-0.2-3.2-0.6c-2.8-1.1-4.4-3.7-4.4-6.8h18.4C64.8,95.2,58.9,93,54,93z M54.2,95.3c3.6,0,7.1,1.8,7.9,6.6H46.3
		C46.9,97.2,50.7,95.3,54.2,95.3z"/>
	<path class="st0" d="M72.9,87.5h-2.7v6.1H66v2.1h4.2v12.9c0,3.2,0.9,4.8,5.1,4.8c0.9,0,2-0.1,3-0.2v-2.3c-0.5,0.1-1.4,0.2-2.7,0.2
		c-2.2,0-2.7-0.8-2.7-2.5V95.7h5.4v-2.1h-5.4V87.5z"/>
	<polygon class="st0" points="139.5,109.5 133.6,93.6 130.7,93.6 124.9,109.6 118.8,93.6 115.9,93.6 123.5,113.1 126.4,113.1 
		132.1,97.5 137.9,113.1 140.8,113.1 148.6,93.6 145.6,93.6 	"/>
	<rect x="150.8" y="86.1" class="st0" width="2.7" height="4.1"/>
	<rect x="150.8" y="93.6" class="st0" width="2.7" height="19.5"/>
	<rect x="157.6" y="86.1" class="st0" width="2.7" height="27"/>
	<path class="st0" d="M181.8,97.5L181.8,97.5c-1.3-2.5-4.2-4.5-7.9-4.5c-7.1,0-10.4,4.9-10.4,10.4c0,4.8,2.6,10.3,10.4,10.3
		c4.6,0,7.1-2.8,7.8-4.5h0.1v3.9h2.7v-27h-2.7V97.5z M173.9,111.4c-5.5,0-7.7-4.1-7.7-8c0-5,3.4-8,7.7-8c5.5,0,8,4,8,8
		C181.9,108.5,178.4,111.4,173.9,111.4z"/>
	<path class="st0" d="M108.4,106.5c-0.2-0.1-2.8,2.4-2.8,2.4c-1.4,1.2-2.6,2.1-3.2,2c-0.6,0-0.6-1.5,0.3-3.9c1-2.8,1.9-5.5,3-8.2
		c0.1-0.2,0.2-0.4,0.3-0.6c0.9-2.1,0.7-2.7-1.2-2.8c-2.5,0-6.5,2.5-10.6,6.9c0.5-1.1,1.3-2.7,2.4-4.2c0,0,2.7-3.9,2.8-4
		c0.5-1.1-1.3-1.7-2.1-0.9c-0.7,0.7-1.3,1.4-2,2.4c-2.2,3.3-3.7,5.7-5.6,10.1c-2,4.6-3.4,8.1-2,8.1c0.7,0,1.2-1.3,1.8-2.3
		c0.3-0.6,1.6-3,2.2-3.8c0.9-1.2,2.4-3,3.8-4.6c2.7-3,5.6-5,6.5-5c0.4,0,1,0.2,0.4,1.6l-1.8,4.9c-1.5,4.1-2.1,5.9-2.2,7.2
		c-0.1,1.2,0.5,1.9,1.9,1.7c1.6-0.2,3.2-1.2,4.8-2.5c1.7-1.4,2.4-2.2,3.4-3.3C109,107.2,109.2,107,108.4,106.5z"/>
	<path class="st0" d="M188.3,86.1c-0.9,0-1.7,0.8-1.7,1.7c0,1,0.8,1.7,1.7,1.7c1,0,1.7-0.8,1.7-1.7C190,86.9,189.2,86.1,188.3,86.1z
		 M188.3,89.4c-0.8,0-1.5-0.7-1.5-1.5c0-0.8,0.7-1.5,1.5-1.5c0.8,0,1.5,0.7,1.5,1.5C189.8,88.7,189.1,89.4,188.3,89.4z"/>
	<path class="st0" d="M189.1,87.4c0-0.4-0.2-0.6-0.7-0.6h-0.8v2.1h0.2v-0.9h0.4l0.6,0.9h0.3l-0.6-0.9
		C188.8,87.9,189.1,87.7,189.1,87.4z M187.9,87.7V87h0.5c0.3,0,0.5,0.1,0.5,0.4c0,0.3-0.2,0.4-0.5,0.4H187.9z"/>
</g>
</svg>
